<?xml version="1.0" encoding="utf-8"?>
<!-- Generator: Adobe Illustrator 16.0.4, SVG Export Plug-In . SVG Version: 6.00 Build 0)  -->
<!DOCTYPE svg PUBLIC "-//W3C//DTD SVG 1.1//EN" "http://www.w3.org/Graphics/SVG/1.1/DTD/svg11.dtd">
<svg version="1.1" id="Layer_1" xmlns="http://www.w3.org/2000/svg" xmlns:xlink="http://www.w3.org/1999/xlink" x="0px" y="0px"
	 width="389.6px" height="108.5px" viewBox="0 0 389.6 108.5" enable-background="new 0 0 389.6 108.5" xml:space="preserve">
<g>
	<g>
		<g>
			<path fill="#23448C" d="M153.1,14.4h36.4c9,0,16,2.5,20.5,6.9c3.6,3.6,5.4,8,5.4,13.3v0.2c0,8.8-4.7,13.8-10.3,16.9
				c9.1,3.5,14.7,8.7,14.7,19.3v0.2c0,14.3-11.6,21.5-29.3,21.5h-37.3V14.4z M198.2,37.6c0-5.2-4-8.1-11.3-8.1h-17v16.6h15.9
				c7.6,0,12.4-2.5,12.4-8.3V37.6z M189.8,60.5h-19.9v17.2h20.5c7.6,0,12.2-2.7,12.2-8.5V69C202.6,63.7,198.6,60.5,189.8,60.5z"/>
			<path fill="#23448C" d="M228.4,53.9v-0.2c0-22.3,17.6-40.5,41.8-40.5s41.6,18,41.6,40.3v0.2c0,22.3-17.6,40.5-41.8,40.5
				C245.8,94.2,228.4,76.2,228.4,53.9z M293.7,53.9v-0.2c0-13.4-9.9-24.6-23.7-24.6c-13.9,0-23.5,11-23.5,24.4v0.2
				c0,13.4,9.9,24.6,23.7,24.6S293.7,67.3,293.7,53.9z"/>
			<path fill="#23448C" d="M388.5,14.4l-26.2,38.3l27.3,40.1h-20.2L351.9,66l-17.7,26.9h-19.6L341.9,53l-26.2-38.5h20.2l16.4,25.4
				l16.7-25.4H388.5z"/>
		</g>
	</g>
	<g>
		<g>
			<polygon fill="#4675B8" points="113.4,44.7 91,95 53.4,50.3 75.8,0 			"/>
			<polygon fill="#2A2760" points="37.6,108.5 91,95.1 53.4,50.3 0,63.7 			"/>
			<polygon fill="#65A8DF" points="22.2,14 75.7,0 53.4,50.3 0,63.7 			"/>
		</g>
		<g>
			<path fill="#FFFFFF" d="M36.9,23.4l-7.1,3.1l3.4-7.3l7-3.3l10.3-2.7L35,48.4L24.5,51L36.9,23.4z"/>
		</g>
	</g>
</g>
</svg>
