<?xml version="1.0" encoding="utf-8"?>
<!-- Generator: Adobe Illustrator 16.0.4, SVG Export Plug-In . SVG Version: 6.00 Build 0)  -->
<!DOCTYPE svg PUBLIC "-//W3C//DTD SVG 1.1//EN" "http://www.w3.org/Graphics/SVG/1.1/DTD/svg11.dtd">
<svg version="1.1" id="Layer_1" xmlns="http://www.w3.org/2000/svg" xmlns:xlink="http://www.w3.org/1999/xlink" x="0px" y="0px"
	 width="756.651px" height="66.604px" viewBox="0 0 756.651 66.604" enable-background="new 0 0 756.651 66.604"
	 xml:space="preserve">
<g>
	<path fill="#5D9CD5" d="M68.767,1.104h26.311c15.363,0,24.655,9.107,24.655,22.263v0.184c0,14.902-11.591,22.631-26.035,22.631
		H82.935V65.5H68.767V1.104z M94.158,33.578c7.084,0,11.224-4.232,11.224-9.751v-0.184c0-6.348-4.416-9.751-11.5-9.751H82.935
		v19.687H94.158z"/>
	<path fill="#5D9CD5" d="M127.758,37.902V1.104h14.167v36.429c0,10.488,5.244,15.916,13.892,15.916
		c8.647,0,13.891-5.244,13.891-15.455V1.104h14.167v36.337c0,19.504-10.947,29.07-28.242,29.07
		C138.337,66.512,127.758,56.854,127.758,37.902z"/>
	<path fill="#5D9CD5" d="M192.434,56.117l8.372-10.027c5.795,4.783,11.867,7.818,19.227,7.818c5.795,0,9.292-2.299,9.292-6.07
		v-0.186c0-3.588-2.208-5.428-12.972-8.188c-12.971-3.311-21.343-6.898-21.343-19.686v-0.184c0-11.683,9.383-19.411,22.539-19.411
		c9.383,0,17.387,2.944,23.918,8.188l-7.359,10.671c-5.704-3.956-11.315-6.348-16.743-6.348s-8.28,2.484-8.28,5.612v0.184
		c0,4.232,2.76,5.612,13.891,8.464c13.063,3.404,20.423,8.096,20.423,19.319v0.184c0,12.787-9.751,19.963-23.643,19.963
		C210.004,66.42,200.161,63.016,192.434,56.117z"/>
	<path fill="#5D9CD5" d="M254.662,1.104h14.167v25.482h26.126V1.104h14.168V65.5h-14.168V39.65h-26.126V65.5h-14.167V1.104z"/>
</g>
<g>
	<path fill="#0067AE" d="M53.205,1.085H41.038c0,0.015,0.002,0.029,0.002,0.043c0,22.927-18.287,41.65-41.041,42.381v12.005
		C29.187,54.271,52.609,30.434,53.205,1.085z"/>
	<path fill="#304580" d="M-0.001,57.51v7.811h54.363V9.828C49.792,36.14,27.328,56.385-0.001,57.51z"/>
	<path fill="#5D9CD5" d="M39.043,1.085H30.63c0,0.042,0.002,0.083,0.002,0.124c0,17.229-13.588,31.28-30.633,32.03v8.276
		c21.653-0.729,39.045-18.56,39.045-40.386C39.044,1.115,39.043,1.1,39.043,1.085z"/>
</g>
</svg>
